# xmcd
# 
# Track frame offsets:
#     150
#     49781
#     71516
#     84565
#     100546
#     126674
#     142781
#     162170
#     171614
#     188729
#     204923
#     218066
#     236662
#     252904
#     272504
#     291228
#     310643
#     322041
# 
# Disc length: 4791
# 
# Revision: 1
# Processed by: cddbd v1.5.2PL0 Copyright (c) Steve Scherf et al.
# Submitted via: fre:ac v1.0.27
# 
DISCID=0512b512
DTITLE=The Smashing Pumpkins - Trippin` Through the Stars (Gish - Remastered Deluxe Edition CD2)
DYEAR=2011
DGENRE=Alternative
TTITLE0=Starla [2011 Mix]
TTITLE1=Siva [Peel Session]
TTITLE2=Honeyspider [Reel Time Demos/2011 Mix]
TTITLE3=Hippy Trippy [Crush Music Box Demo]
TTITLE4=Snail [Live Radio Performance]
TTITLE5=Plume [2011 Mix]
TTITLE6=Bury Me [Reel Time Demos/2011 Mix]
TTITLE7=Daydream [Old House Demo]
TTITLE8=Tristessa [Sub Pop Single/2011 Mix]
TTITLE9=Girl Named Sandoz [Peel Session]
TTITLE10=Jesus Is The Sun [Apartment Demo]
TTITLE11=Blue [Gish Sessions Demo]
TTITLE12=Smiley [Gish Sessions Demo]
TTITLE13=I Am One [Reel Time Demos/2011 Mix]
TTITLE14=Seam [Suffer/Apartment Demo]
TTITLE15=La Dolly Vita [Sub Popp Single/2011 Mix]
TTITLE16=Pulseczar [Gish Sessions Demo]
TTITLE17=Drown [Alternate Guitar Solo]
EXTD=2011 Re-release
EXTT0=
EXTT1=
EXTT2=
EXTT3=
EXTT4=
EXTT5=
EXTT6=
EXTT7=
EXTT8=
EXTT9=
EXTT10=
EXTT11=
EXTT12=
EXTT13=
EXTT14=
EXTT15=
EXTT16=
EXTT17=
PLAYORDER=
